STARTFONT 2.1
FONT -FontForge-Teeny Tiny Pixls-Book-R-Normal--5-50-75-75-C-40-ISO10646-1
SIZE 5 75 75
FONTBOUNDINGBOX 3 5 0 0
COMMENT "Generated by fontforge, http://fontforge.sourceforge.net"
COMMENT "Copyright Chequered Ink Ltd. 2018"
STARTPROPERTIES 40
FOUNDRY "FontForge"
FAMILY_NAME "Teeny Tiny Pixls"
WEIGHT_NAME "Book"
SLANT "R"
SETWIDTH_NAME "Normal"
ADD_STYLE_NAME ""
PIXEL_SIZE 5
POINT_SIZE 50
RESOLUTION_X 75
RESOLUTION_Y 75
SPACING "C"
AVERAGE_WIDTH 40
CHARSET_REGISTRY "ISO10646"
CHARSET_ENCODING "1"
FONTNAME_REGISTRY ""
CHARSET_COLLECTIONS "ISO10646-1"
FONT_NAME "Teeny-Tiny-Pixls"
FACE_NAME "Teeny Tiny Pixls"
COPYRIGHT "Copyright Chequered Ink Ltd. 2018"
FONT_VERSION "1.00;July 29, 2018;FontCreator 11.5.0.2422 64-bit"
FONT_ASCENT 4
FONT_DESCENT 1
UNDERLINE_POSITION 0
UNDERLINE_THICKNESS 1
X_HEIGHT 3
CAP_HEIGHT 4
RAW_ASCENT 799
RAW_DESCENT 200
NORM_SPACE 4
RELATIVE_WEIGHT 40
RELATIVE_SETWIDTH 50
SUPERSCRIPT_X 0
SUPERSCRIPT_Y 2
SUPERSCRIPT_SIZE 2
SUBSCRIPT_X 0
SUBSCRIPT_Y 0
SUBSCRIPT_SIZE 2
FIGURE_WIDTH 4
AVG_LOWERCASE_WIDTH 40
AVG_UPPERCASE_WIDTH 40
ENDPROPERTIES
CHARS 214
STARTCHAR space
ENCODING 32
SWIDTH 799 0
DWIDTH 4 0
BBX 1 1 0 0
BITMAP
00
ENDCHAR
STARTCHAR exclam
ENCODING 33
SWIDTH 799 0
DWIDTH 4 0
BBX 1 5 1 0
BITMAP
80
80
80
00
80
ENDCHAR
STARTCHAR quotedbl
ENCODING 34
SWIDTH 799 0
DWIDTH 4 0
BBX 3 2 0 3
BITMAP
A0
A0
ENDCHAR
STARTCHAR numbersign
ENCODING 35
SWIDTH 799 0
DWIDTH 4 0
BBX 3 5 0 0
BITMAP
A0
E0
A0
E0
A0
ENDCHAR
STARTCHAR dollar
ENCODING 36
SWIDTH 799 0
DWIDTH 4 0
BBX 3 5 0 0
BITMAP
60
80
40
20
C0
ENDCHAR
STARTCHAR percent
ENCODING 37
SWIDTH 799 0
DWIDTH 4 0
BBX 3 5 0 0
BITMAP
A0
20
40
80
A0
ENDCHAR
STARTCHAR ampersand
ENCODING 38
SWIDTH 799 0
DWIDTH 4 0
BBX 3 5 0 0
BITMAP
C0
80
E0
80
E0
ENDCHAR
STARTCHAR quotesingle
ENCODING 39
SWIDTH 799 0
DWIDTH 4 0
BBX 1 2 1 3
BITMAP
80
80
ENDCHAR
STARTCHAR parenleft
ENCODING 40
SWIDTH 799 0
DWIDTH 4 0
BBX 2 5 0 0
BITMAP
40
80
80
80
40
ENDCHAR
STARTCHAR parenright
ENCODING 41
SWIDTH 799 0
DWIDTH 4 0
BBX 2 5 0 0
BITMAP
80
40
40
40
80
ENDCHAR
STARTCHAR asterisk
ENCODING 42
SWIDTH 799 0
DWIDTH 4 0
BBX 3 4 0 1
BITMAP
40
E0
40
A0
ENDCHAR
STARTCHAR plus
ENCODING 43
SWIDTH 799 0
DWIDTH 4 0
BBX 3 3 0 1
BITMAP
40
E0
40
ENDCHAR
STARTCHAR comma
ENCODING 44
SWIDTH 799 0
DWIDTH 4 0
BBX 1 2 1 0
BITMAP
80
80
ENDCHAR
STARTCHAR hyphen
ENCODING 45
SWIDTH 799 0
DWIDTH 4 0
BBX 3 1 0 2
BITMAP
E0
ENDCHAR
STARTCHAR period
ENCODING 46
SWIDTH 799 0
DWIDTH 4 0
BBX 1 1 1 0
BITMAP
80
ENDCHAR
STARTCHAR slash
ENCODING 47
SWIDTH 799 0
DWIDTH 4 0
BBX 3 5 0 0
BITMAP
20
40
40
80
80
ENDCHAR
STARTCHAR zero
ENCODING 48
SWIDTH 799 0
DWIDTH 4 0
BBX 3 5 0 0
BITMAP
E0
A0
A0
A0
E0
ENDCHAR
STARTCHAR one
ENCODING 49
SWIDTH 799 0
DWIDTH 4 0
BBX 3 5 0 0
BITMAP
C0
40
40
40
E0
ENDCHAR
STARTCHAR two
ENCODING 50
SWIDTH 799 0
DWIDTH 4 0
BBX 3 5 0 0
BITMAP
E0
20
E0
80
E0
ENDCHAR
STARTCHAR three
ENCODING 51
SWIDTH 799 0
DWIDTH 4 0
BBX 3 5 0 0
BITMAP
E0
20
E0
20
E0
ENDCHAR
STARTCHAR four
ENCODING 52
SWIDTH 799 0
DWIDTH 4 0
BBX 3 5 0 0
BITMAP
A0
A0
E0
20
20
ENDCHAR
STARTCHAR five
ENCODING 53
SWIDTH 799 0
DWIDTH 4 0
BBX 3 5 0 0
BITMAP
E0
80
E0
20
E0
ENDCHAR
STARTCHAR six
ENCODING 54
SWIDTH 799 0
DWIDTH 4 0
BBX 3 5 0 0
BITMAP
E0
80
E0
A0
E0
ENDCHAR
STARTCHAR seven
ENCODING 55
SWIDTH 799 0
DWIDTH 4 0
BBX 3 5 0 0
BITMAP
E0
A0
20
20
20
ENDCHAR
STARTCHAR eight
ENCODING 56
SWIDTH 799 0
DWIDTH 4 0
BBX 3 5 0 0
BITMAP
E0
A0
E0
A0
E0
ENDCHAR
STARTCHAR nine
ENCODING 57
SWIDTH 799 0
DWIDTH 4 0
BBX 3 5 0 0
BITMAP
E0
A0
E0
20
20
ENDCHAR
STARTCHAR colon
ENCODING 58
SWIDTH 799 0
DWIDTH 4 0
BBX 1 3 1 1
BITMAP
80
00
80
ENDCHAR
STARTCHAR semicolon
ENCODING 59
SWIDTH 799 0
DWIDTH 4 0
BBX 1 4 1 0
BITMAP
80
00
80
80
ENDCHAR
STARTCHAR less
ENCODING 60
SWIDTH 799 0
DWIDTH 4 0
BBX 3 5 0 0
BITMAP
20
40
80
40
20
ENDCHAR
STARTCHAR equal
ENCODING 61
SWIDTH 799 0
DWIDTH 4 0
BBX 3 3 0 1
BITMAP
E0
00
E0
ENDCHAR
STARTCHAR greater
ENCODING 62
SWIDTH 799 0
DWIDTH 4 0
BBX 3 5 0 0
BITMAP
80
40
20
40
80
ENDCHAR
STARTCHAR question
ENCODING 63
SWIDTH 799 0
DWIDTH 4 0
BBX 3 5 0 0
BITMAP
E0
20
60
00
40
ENDCHAR
STARTCHAR at
ENCODING 64
SWIDTH 799 0
DWIDTH 4 0
BBX 3 5 0 0
BITMAP
E0
A0
A0
80
E0
ENDCHAR
STARTCHAR A
ENCODING 65
SWIDTH 799 0
DWIDTH 4 0
BBX 3 5 0 0
BITMAP
E0
A0
E0
A0
A0
ENDCHAR
STARTCHAR B
ENCODING 66
SWIDTH 799 0
DWIDTH 4 0
BBX 3 5 0 0
BITMAP
E0
A0
C0
A0
E0
ENDCHAR
STARTCHAR C
ENCODING 67
SWIDTH 799 0
DWIDTH 4 0
BBX 3 5 0 0
BITMAP
E0
80
80
80
E0
ENDCHAR
STARTCHAR D
ENCODING 68
SWIDTH 799 0
DWIDTH 4 0
BBX 3 5 0 0
BITMAP
C0
A0
A0
A0
C0
ENDCHAR
STARTCHAR E
ENCODING 69
SWIDTH 799 0
DWIDTH 4 0
BBX 3 5 0 0
BITMAP
E0
80
E0
80
E0
ENDCHAR
STARTCHAR F
ENCODING 70
SWIDTH 799 0
DWIDTH 4 0
BBX 3 5 0 0
BITMAP
E0
80
E0
80
80
ENDCHAR
STARTCHAR G
ENCODING 71
SWIDTH 799 0
DWIDTH 4 0
BBX 3 5 0 0
BITMAP
E0
80
A0
A0
E0
ENDCHAR
STARTCHAR H
ENCODING 72
SWIDTH 799 0
DWIDTH 4 0
BBX 3 5 0 0
BITMAP
A0
A0
E0
A0
A0
ENDCHAR
STARTCHAR I
ENCODING 73
SWIDTH 799 0
DWIDTH 4 0
BBX 3 5 0 0
BITMAP
E0
40
40
40
E0
ENDCHAR
STARTCHAR J
ENCODING 74
SWIDTH 799 0
DWIDTH 4 0
BBX 3 5 0 0
BITMAP
20
20
20
A0
E0
ENDCHAR
STARTCHAR K
ENCODING 75
SWIDTH 799 0
DWIDTH 4 0
BBX 3 5 0 0
BITMAP
A0
A0
C0
A0
A0
ENDCHAR
STARTCHAR L
ENCODING 76
SWIDTH 799 0
DWIDTH 4 0
BBX 3 5 0 0
BITMAP
80
80
80
80
E0
ENDCHAR
STARTCHAR M
ENCODING 77
SWIDTH 799 0
DWIDTH 4 0
BBX 3 5 0 0
BITMAP
A0
E0
A0
A0
A0
ENDCHAR
STARTCHAR N
ENCODING 78
SWIDTH 799 0
DWIDTH 4 0
BBX 3 5 0 0
BITMAP
E0
A0
A0
A0
A0
ENDCHAR
STARTCHAR O
ENCODING 79
SWIDTH 799 0
DWIDTH 4 0
BBX 3 5 0 0
BITMAP
E0
A0
A0
A0
E0
ENDCHAR
STARTCHAR P
ENCODING 80
SWIDTH 799 0
DWIDTH 4 0
BBX 3 5 0 0
BITMAP
E0
A0
E0
80
80
ENDCHAR
STARTCHAR Q
ENCODING 81
SWIDTH 799 0
DWIDTH 4 0
BBX 3 5 0 0
BITMAP
E0
A0
A0
C0
A0
ENDCHAR
STARTCHAR R
ENCODING 82
SWIDTH 799 0
DWIDTH 4 0
BBX 3 5 0 0
BITMAP
E0
A0
C0
A0
A0
ENDCHAR
STARTCHAR S
ENCODING 83
SWIDTH 799 0
DWIDTH 4 0
BBX 3 5 0 0
BITMAP
E0
80
E0
20
E0
ENDCHAR
STARTCHAR T
ENCODING 84
SWIDTH 799 0
DWIDTH 4 0
BBX 3 5 0 0
BITMAP
E0
40
40
40
40
ENDCHAR
STARTCHAR U
ENCODING 85
SWIDTH 799 0
DWIDTH 4 0
BBX 3 5 0 0
BITMAP
A0
A0
A0
A0
E0
ENDCHAR
STARTCHAR V
ENCODING 86
SWIDTH 799 0
DWIDTH 4 0
BBX 3 5 0 0
BITMAP
A0
A0
A0
A0
40
ENDCHAR
STARTCHAR W
ENCODING 87
SWIDTH 799 0
DWIDTH 4 0
BBX 3 5 0 0
BITMAP
A0
A0
A0
E0
A0
ENDCHAR
STARTCHAR X
ENCODING 88
SWIDTH 799 0
DWIDTH 4 0
BBX 3 5 0 0
BITMAP
A0
A0
40
A0
A0
ENDCHAR
STARTCHAR Y
ENCODING 89
SWIDTH 799 0
DWIDTH 4 0
BBX 3 5 0 0
BITMAP
A0
A0
E0
40
40
ENDCHAR
STARTCHAR Z
ENCODING 90
SWIDTH 799 0
DWIDTH 4 0
BBX 3 5 0 0
BITMAP
E0
20
40
80
E0
ENDCHAR
STARTCHAR bracketleft
ENCODING 91
SWIDTH 799 0
DWIDTH 4 0
BBX 2 5 0 0
BITMAP
C0
80
80
80
C0
ENDCHAR
STARTCHAR backslash
ENCODING 92
SWIDTH 799 0
DWIDTH 4 0
BBX 3 5 0 0
BITMAP
80
40
40
20
20
ENDCHAR
STARTCHAR bracketright
ENCODING 93
SWIDTH 799 0
DWIDTH 4 0
BBX 2 5 0 0
BITMAP
C0
40
40
40
C0
ENDCHAR
STARTCHAR asciicircum
ENCODING 94
SWIDTH 799 0
DWIDTH 4 0
BBX 3 2 0 3
BITMAP
40
A0
ENDCHAR
STARTCHAR underscore
ENCODING 95
SWIDTH 799 0
DWIDTH 4 0
BBX 3 1 0 0
BITMAP
E0
ENDCHAR
STARTCHAR grave
ENCODING 96
SWIDTH 799 0
DWIDTH 4 0
BBX 2 2 0 3
BITMAP
80
40
ENDCHAR
STARTCHAR a
ENCODING 97
SWIDTH 799 0
DWIDTH 4 0
BBX 3 4 0 0
BITMAP
60
A0
A0
60
ENDCHAR
STARTCHAR b
ENCODING 98
SWIDTH 799 0
DWIDTH 4 0
BBX 3 5 0 0
BITMAP
80
E0
A0
A0
E0
ENDCHAR
STARTCHAR c
ENCODING 99
SWIDTH 799 0
DWIDTH 4 0
BBX 3 4 0 0
BITMAP
E0
80
80
E0
ENDCHAR
STARTCHAR d
ENCODING 100
SWIDTH 799 0
DWIDTH 4 0
BBX 3 5 0 0
BITMAP
20
E0
A0
A0
E0
ENDCHAR
STARTCHAR e
ENCODING 101
SWIDTH 799 0
DWIDTH 4 0
BBX 3 4 0 0
BITMAP
60
A0
C0
60
ENDCHAR
STARTCHAR f
ENCODING 102
SWIDTH 799 0
DWIDTH 4 0
BBX 3 5 0 0
BITMAP
20
40
E0
40
40
ENDCHAR
STARTCHAR g
ENCODING 103
SWIDTH 799 0
DWIDTH 4 0
BBX 3 4 0 0
BITMAP
C0
A0
60
C0
ENDCHAR
STARTCHAR h
ENCODING 104
SWIDTH 799 0
DWIDTH 4 0
BBX 3 5 0 0
BITMAP
80
E0
A0
A0
A0
ENDCHAR
STARTCHAR i
ENCODING 105
SWIDTH 799 0
DWIDTH 4 0
BBX 3 5 0 0
BITMAP
40
00
40
40
E0
ENDCHAR
STARTCHAR j
ENCODING 106
SWIDTH 799 0
DWIDTH 4 0
BBX 2 5 0 0
BITMAP
40
00
40
40
C0
ENDCHAR
STARTCHAR k
ENCODING 107
SWIDTH 799 0
DWIDTH 4 0
BBX 3 5 0 0
BITMAP
80
A0
C0
A0
A0
ENDCHAR
STARTCHAR l
ENCODING 108
SWIDTH 799 0
DWIDTH 4 0
BBX 3 5 0 0
BITMAP
C0
40
40
40
60
ENDCHAR
STARTCHAR m
ENCODING 109
SWIDTH 799 0
DWIDTH 4 0
BBX 3 4 0 0
BITMAP
A0
E0
A0
A0
ENDCHAR
STARTCHAR n
ENCODING 110
SWIDTH 799 0
DWIDTH 4 0
BBX 3 4 0 0
BITMAP
E0
A0
A0
A0
ENDCHAR
STARTCHAR o
ENCODING 111
SWIDTH 799 0
DWIDTH 4 0
BBX 3 4 0 0
BITMAP
E0
A0
A0
E0
ENDCHAR
STARTCHAR p
ENCODING 112
SWIDTH 799 0
DWIDTH 4 0
BBX 3 4 0 0
BITMAP
E0
A0
E0
80
ENDCHAR
STARTCHAR q
ENCODING 113
SWIDTH 799 0
DWIDTH 4 0
BBX 3 4 0 0
BITMAP
E0
A0
E0
20
ENDCHAR
STARTCHAR r
ENCODING 114
SWIDTH 799 0
DWIDTH 4 0
BBX 3 4 0 0
BITMAP
E0
80
80
80
ENDCHAR
STARTCHAR s
ENCODING 115
SWIDTH 799 0
DWIDTH 4 0
BBX 3 4 0 0
BITMAP
60
C0
60
C0
ENDCHAR
STARTCHAR t
ENCODING 116
SWIDTH 799 0
DWIDTH 4 0
BBX 3 4 0 0
BITMAP
40
E0
40
60
ENDCHAR
STARTCHAR u
ENCODING 117
SWIDTH 799 0
DWIDTH 4 0
BBX 3 4 0 0
BITMAP
A0
A0
A0
E0
ENDCHAR
STARTCHAR v
ENCODING 118
SWIDTH 799 0
DWIDTH 4 0
BBX 3 4 0 0
BITMAP
A0
A0
A0
40
ENDCHAR
STARTCHAR w
ENCODING 119
SWIDTH 799 0
DWIDTH 4 0
BBX 3 4 0 0
BITMAP
A0
A0
E0
A0
ENDCHAR
STARTCHAR x
ENCODING 120
SWIDTH 799 0
DWIDTH 4 0
BBX 3 4 0 0
BITMAP
A0
40
A0
A0
ENDCHAR
STARTCHAR y
ENCODING 121
SWIDTH 799 0
DWIDTH 4 0
BBX 3 4 0 0
BITMAP
A0
A0
E0
20
ENDCHAR
STARTCHAR z
ENCODING 122
SWIDTH 799 0
DWIDTH 4 0
BBX 3 4 0 0
BITMAP
E0
60
80
E0
ENDCHAR
STARTCHAR braceleft
ENCODING 123
SWIDTH 799 0
DWIDTH 4 0
BBX 3 5 0 0
BITMAP
60
40
C0
40
60
ENDCHAR
STARTCHAR bar
ENCODING 124
SWIDTH 799 0
DWIDTH 4 0
BBX 1 5 1 0
BITMAP
80
80
80
80
80
ENDCHAR
STARTCHAR braceright
ENCODING 125
SWIDTH 799 0
DWIDTH 4 0
BBX 3 5 0 0
BITMAP
C0
40
60
40
C0
ENDCHAR
STARTCHAR asciitilde
ENCODING 126
SWIDTH 799 0
DWIDTH 4 0
BBX 3 3 0 1
BITMAP
20
E0
80
ENDCHAR
STARTCHAR exclamdown
ENCODING 161
SWIDTH 799 0
DWIDTH 4 0
BBX 1 5 1 0
BITMAP
80
00
80
80
80
ENDCHAR
STARTCHAR cent
ENCODING 162
SWIDTH 799 0
DWIDTH 4 0
BBX 3 5 0 0
BITMAP
40
E0
80
E0
40
ENDCHAR
STARTCHAR sterling
ENCODING 163
SWIDTH 799 0
DWIDTH 4 0
BBX 3 5 0 0
BITMAP
20
40
E0
40
60
ENDCHAR
STARTCHAR currency
ENCODING 164
SWIDTH 799 0
DWIDTH 4 0
BBX 3 5 0 0
BITMAP
A0
E0
A0
E0
A0
ENDCHAR
STARTCHAR yen
ENCODING 165
SWIDTH 799 0
DWIDTH 4 0
BBX 3 5 0 0
BITMAP
A0
E0
40
E0
40
ENDCHAR
STARTCHAR brokenbar
ENCODING 166
SWIDTH 799 0
DWIDTH 4 0
BBX 1 5 1 0
BITMAP
80
80
00
80
80
ENDCHAR
STARTCHAR section
ENCODING 167
SWIDTH 799 0
DWIDTH 4 0
BBX 3 5 0 0
BITMAP
60
80
40
20
C0
ENDCHAR
STARTCHAR dieresis
ENCODING 168
SWIDTH 799 0
DWIDTH 4 0
BBX 3 1 0 4
BITMAP
A0
ENDCHAR
STARTCHAR copyright
ENCODING 169
SWIDTH 799 0
DWIDTH 4 0
BBX 3 5 0 0
BITMAP
60
80
80
80
60
ENDCHAR
STARTCHAR ordfeminine
ENCODING 170
SWIDTH 799 0
DWIDTH 4 0
BBX 3 4 0 1
BITMAP
E0
20
E0
E0
ENDCHAR
STARTCHAR guillemotleft
ENCODING 171
SWIDTH 799 0
DWIDTH 4 0
BBX 2 3 0 1
BITMAP
40
80
40
ENDCHAR
STARTCHAR logicalnot
ENCODING 172
SWIDTH 799 0
DWIDTH 4 0
BBX 3 2 0 1
BITMAP
E0
20
ENDCHAR
STARTCHAR uni00AD
ENCODING 173
SWIDTH 799 0
DWIDTH 4 0
BBX 3 1 0 2
BITMAP
E0
ENDCHAR
STARTCHAR registered
ENCODING 174
SWIDTH 799 0
DWIDTH 4 0
BBX 3 5 0 0
BITMAP
40
A0
C0
A0
A0
ENDCHAR
STARTCHAR macron
ENCODING 175
SWIDTH 799 0
DWIDTH 4 0
BBX 3 1 0 4
BITMAP
E0
ENDCHAR
STARTCHAR degree
ENCODING 176
SWIDTH 799 0
DWIDTH 4 0
BBX 3 3 0 2
BITMAP
40
A0
40
ENDCHAR
STARTCHAR plusminus
ENCODING 177
SWIDTH 799 0
DWIDTH 4 0
BBX 3 5 0 0
BITMAP
40
E0
40
00
E0
ENDCHAR
STARTCHAR uni00B2
ENCODING 178
SWIDTH 799 0
DWIDTH 4 0
BBX 3 4 0 1
BITMAP
E0
20
40
E0
ENDCHAR
STARTCHAR uni00B3
ENCODING 179
SWIDTH 799 0
DWIDTH 4 0
BBX 3 4 0 1
BITMAP
E0
20
60
E0
ENDCHAR
STARTCHAR acute
ENCODING 180
SWIDTH 799 0
DWIDTH 4 0
BBX 2 2 0 3
BITMAP
40
80
ENDCHAR
STARTCHAR mu
ENCODING 181
SWIDTH 799 0
DWIDTH 4 0
BBX 3 5 0 0
BITMAP
A0
A0
A0
E0
80
ENDCHAR
STARTCHAR paragraph
ENCODING 182
SWIDTH 799 0
DWIDTH 4 0
BBX 3 5 0 0
BITMAP
60
E0
60
20
20
ENDCHAR
STARTCHAR periodcentered
ENCODING 183
SWIDTH 799 0
DWIDTH 4 0
BBX 1 1 0 2
BITMAP
80
ENDCHAR
STARTCHAR cedilla
ENCODING 184
SWIDTH 799 0
DWIDTH 4 0
BBX 1 1 1 0
BITMAP
80
ENDCHAR
STARTCHAR uni00B9
ENCODING 185
SWIDTH 799 0
DWIDTH 4 0
BBX 2 4 0 1
BITMAP
C0
40
40
40
ENDCHAR
STARTCHAR ordmasculine
ENCODING 186
SWIDTH 799 0
DWIDTH 4 0
BBX 3 4 0 1
BITMAP
E0
A0
A0
E0
ENDCHAR
STARTCHAR guillemotright
ENCODING 187
SWIDTH 799 0
DWIDTH 4 0
BBX 2 3 0 1
BITMAP
80
40
80
ENDCHAR
STARTCHAR onequarter
ENCODING 188
SWIDTH 799 0
DWIDTH 4 0
BBX 3 5 0 0
BITMAP
A0
A0
40
A0
A0
ENDCHAR
STARTCHAR onehalf
ENCODING 189
SWIDTH 799 0
DWIDTH 4 0
BBX 3 5 0 0
BITMAP
A0
A0
40
A0
A0
ENDCHAR
STARTCHAR threequarters
ENCODING 190
SWIDTH 799 0
DWIDTH 4 0
BBX 3 5 0 0
BITMAP
A0
A0
40
A0
A0
ENDCHAR
STARTCHAR questiondown
ENCODING 191
SWIDTH 799 0
DWIDTH 4 0
BBX 3 5 0 0
BITMAP
40
00
C0
80
E0
ENDCHAR
STARTCHAR Agrave
ENCODING 192
SWIDTH 799 0
DWIDTH 4 0
BBX 3 5 0 0
BITMAP
80
E0
A0
E0
A0
ENDCHAR
STARTCHAR Aacute
ENCODING 193
SWIDTH 799 0
DWIDTH 4 0
BBX 3 5 0 0
BITMAP
20
E0
A0
E0
A0
ENDCHAR
STARTCHAR Acircumflex
ENCODING 194
SWIDTH 799 0
DWIDTH 4 0
BBX 3 5 0 0
BITMAP
40
E0
A0
E0
A0
ENDCHAR
STARTCHAR Atilde
ENCODING 195
SWIDTH 799 0
DWIDTH 4 0
BBX 3 5 0 0
BITMAP
E0
E0
A0
E0
A0
ENDCHAR
STARTCHAR Adieresis
ENCODING 196
SWIDTH 799 0
DWIDTH 4 0
BBX 3 5 0 0
BITMAP
A0
E0
A0
E0
A0
ENDCHAR
STARTCHAR Aring
ENCODING 197
SWIDTH 799 0
DWIDTH 4 0
BBX 3 5 0 0
BITMAP
40
E0
A0
E0
A0
ENDCHAR
STARTCHAR AE
ENCODING 198
SWIDTH 799 0
DWIDTH 4 0
BBX 3 5 0 0
BITMAP
60
C0
E0
C0
A0
ENDCHAR
STARTCHAR Ccedilla
ENCODING 199
SWIDTH 799 0
DWIDTH 4 0
BBX 3 5 0 0
BITMAP
E0
80
80
E0
40
ENDCHAR
STARTCHAR Egrave
ENCODING 200
SWIDTH 799 0
DWIDTH 4 0
BBX 3 5 0 0
BITMAP
80
40
E0
C0
E0
ENDCHAR
STARTCHAR Eacute
ENCODING 201
SWIDTH 799 0
DWIDTH 4 0
BBX 3 5 0 0
BITMAP
20
40
E0
C0
E0
ENDCHAR
STARTCHAR Ecircumflex
ENCODING 202
SWIDTH 799 0
DWIDTH 4 0
BBX 3 5 0 0
BITMAP
40
A0
E0
C0
E0
ENDCHAR
STARTCHAR Edieresis
ENCODING 203
SWIDTH 799 0
DWIDTH 4 0
BBX 3 5 0 0
BITMAP
A0
00
E0
C0
E0
ENDCHAR
STARTCHAR Igrave
ENCODING 204
SWIDTH 799 0
DWIDTH 4 0
BBX 3 5 0 0
BITMAP
80
40
E0
40
E0
ENDCHAR
STARTCHAR Iacute
ENCODING 205
SWIDTH 799 0
DWIDTH 4 0
BBX 3 5 0 0
BITMAP
20
40
E0
40
E0
ENDCHAR
STARTCHAR Icircumflex
ENCODING 206
SWIDTH 799 0
DWIDTH 4 0
BBX 3 5 0 0
BITMAP
40
A0
E0
40
E0
ENDCHAR
STARTCHAR Idieresis
ENCODING 207
SWIDTH 799 0
DWIDTH 4 0
BBX 3 5 0 0
BITMAP
A0
00
E0
40
E0
ENDCHAR
STARTCHAR Eth
ENCODING 208
SWIDTH 799 0
DWIDTH 4 0
BBX 3 5 0 0
BITMAP
C0
A0
E0
A0
C0
ENDCHAR
STARTCHAR Ntilde
ENCODING 209
SWIDTH 799 0
DWIDTH 4 0
BBX 3 5 0 0
BITMAP
E0
00
E0
A0
A0
ENDCHAR
STARTCHAR Ograve
ENCODING 210
SWIDTH 799 0
DWIDTH 4 0
BBX 3 5 0 0
BITMAP
80
40
E0
A0
E0
ENDCHAR
STARTCHAR Oacute
ENCODING 211
SWIDTH 799 0
DWIDTH 4 0
BBX 3 5 0 0
BITMAP
20
40
E0
A0
E0
ENDCHAR
STARTCHAR Ocircumflex
ENCODING 212
SWIDTH 799 0
DWIDTH 4 0
BBX 3 5 0 0
BITMAP
40
A0
E0
A0
E0
ENDCHAR
STARTCHAR Otilde
ENCODING 213
SWIDTH 799 0
DWIDTH 4 0
BBX 3 5 0 0
BITMAP
E0
00
E0
A0
E0
ENDCHAR
STARTCHAR Odieresis
ENCODING 214
SWIDTH 799 0
DWIDTH 4 0
BBX 3 5 0 0
BITMAP
A0
00
E0
A0
E0
ENDCHAR
STARTCHAR multiply
ENCODING 215
SWIDTH 799 0
DWIDTH 4 0
BBX 3 3 0 1
BITMAP
A0
40
A0
ENDCHAR
STARTCHAR Oslash
ENCODING 216
SWIDTH 799 0
DWIDTH 4 0
BBX 3 5 0 0
BITMAP
E0
A0
E0
A0
E0
ENDCHAR
STARTCHAR Ugrave
ENCODING 217
SWIDTH 799 0
DWIDTH 4 0
BBX 3 5 0 0
BITMAP
80
40
A0
A0
E0
ENDCHAR
STARTCHAR Uacute
ENCODING 218
SWIDTH 799 0
DWIDTH 4 0
BBX 3 5 0 0
BITMAP
20
40
A0
A0
E0
ENDCHAR
STARTCHAR Ucircumflex
ENCODING 219
SWIDTH 799 0
DWIDTH 4 0
BBX 3 5 0 0
BITMAP
40
A0
A0
A0
E0
ENDCHAR
STARTCHAR Udieresis
ENCODING 220
SWIDTH 799 0
DWIDTH 4 0
BBX 3 5 0 0
BITMAP
A0
00
A0
A0
E0
ENDCHAR
STARTCHAR Yacute
ENCODING 221
SWIDTH 799 0
DWIDTH 4 0
BBX 3 5 0 0
BITMAP
20
40
A0
E0
40
ENDCHAR
STARTCHAR Thorn
ENCODING 222
SWIDTH 799 0
DWIDTH 4 0
BBX 3 5 0 0
BITMAP
80
E0
A0
E0
80
ENDCHAR
STARTCHAR germandbls
ENCODING 223
SWIDTH 799 0
DWIDTH 4 0
BBX 3 5 0 0
BITMAP
C0
A0
C0
A0
C0
ENDCHAR
STARTCHAR agrave
ENCODING 224
SWIDTH 799 0
DWIDTH 4 0
BBX 3 5 0 0
BITMAP
80
40
60
A0
60
ENDCHAR
STARTCHAR aacute
ENCODING 225
SWIDTH 799 0
DWIDTH 4 0
BBX 3 5 0 0
BITMAP
20
40
60
A0
60
ENDCHAR
STARTCHAR acircumflex
ENCODING 226
SWIDTH 799 0
DWIDTH 4 0
BBX 3 5 0 0
BITMAP
40
A0
60
A0
60
ENDCHAR
STARTCHAR atilde
ENCODING 227
SWIDTH 799 0
DWIDTH 4 0
BBX 3 5 0 0
BITMAP
E0
00
60
A0
60
ENDCHAR
STARTCHAR adieresis
ENCODING 228
SWIDTH 799 0
DWIDTH 4 0
BBX 3 5 0 0
BITMAP
A0
00
60
A0
60
ENDCHAR
STARTCHAR aring
ENCODING 229
SWIDTH 799 0
DWIDTH 4 0
BBX 3 5 0 0
BITMAP
40
00
60
A0
60
ENDCHAR
STARTCHAR ae
ENCODING 230
SWIDTH 799 0
DWIDTH 4 0
BBX 3 3 0 0
BITMAP
60
C0
60
ENDCHAR
STARTCHAR ccedilla
ENCODING 231
SWIDTH 799 0
DWIDTH 4 0
BBX 3 4 0 0
BITMAP
E0
80
E0
40
ENDCHAR
STARTCHAR egrave
ENCODING 232
SWIDTH 799 0
DWIDTH 4 0
BBX 3 5 0 0
BITMAP
80
60
A0
C0
60
ENDCHAR
STARTCHAR eacute
ENCODING 233
SWIDTH 799 0
DWIDTH 4 0
BBX 3 5 0 0
BITMAP
20
60
A0
C0
60
ENDCHAR
STARTCHAR ecircumflex
ENCODING 234
SWIDTH 799 0
DWIDTH 4 0
BBX 3 5 0 0
BITMAP
40
60
A0
C0
60
ENDCHAR
STARTCHAR edieresis
ENCODING 235
SWIDTH 799 0
DWIDTH 4 0
BBX 3 5 0 0
BITMAP
A0
60
A0
C0
60
ENDCHAR
STARTCHAR igrave
ENCODING 236
SWIDTH 799 0
DWIDTH 4 0
BBX 3 5 0 0
BITMAP
80
40
00
40
E0
ENDCHAR
STARTCHAR iacute
ENCODING 237
SWIDTH 799 0
DWIDTH 4 0
BBX 3 5 0 0
BITMAP
20
40
00
40
E0
ENDCHAR
STARTCHAR icircumflex
ENCODING 238
SWIDTH 799 0
DWIDTH 4 0
BBX 3 5 0 0
BITMAP
40
A0
00
40
E0
ENDCHAR
STARTCHAR idieresis
ENCODING 239
SWIDTH 799 0
DWIDTH 4 0
BBX 3 5 0 0
BITMAP
A0
00
40
40
E0
ENDCHAR
STARTCHAR eth
ENCODING 240
SWIDTH 799 0
DWIDTH 4 0
BBX 3 5 0 0
BITMAP
60
20
E0
A0
E0
ENDCHAR
STARTCHAR ntilde
ENCODING 241
SWIDTH 799 0
DWIDTH 4 0
BBX 3 5 0 0
BITMAP
E0
00
E0
A0
A0
ENDCHAR
STARTCHAR ograve
ENCODING 242
SWIDTH 799 0
DWIDTH 4 0
BBX 3 5 0 0
BITMAP
80
40
E0
A0
E0
ENDCHAR
STARTCHAR oacute
ENCODING 243
SWIDTH 799 0
DWIDTH 4 0
BBX 3 5 0 0
BITMAP
20
40
E0
A0
E0
ENDCHAR
STARTCHAR ocircumflex
ENCODING 244
SWIDTH 799 0
DWIDTH 4 0
BBX 3 5 0 0
BITMAP
40
A0
E0
A0
E0
ENDCHAR
STARTCHAR otilde
ENCODING 245
SWIDTH 799 0
DWIDTH 4 0
BBX 3 5 0 0
BITMAP
E0
00
E0
A0
E0
ENDCHAR
STARTCHAR odieresis
ENCODING 246
SWIDTH 799 0
DWIDTH 4 0
BBX 3 5 0 0
BITMAP
A0
00
E0
A0
E0
ENDCHAR
STARTCHAR divide
ENCODING 247
SWIDTH 799 0
DWIDTH 4 0
BBX 3 5 0 0
BITMAP
40
00
E0
00
40
ENDCHAR
STARTCHAR oslash
ENCODING 248
SWIDTH 799 0
DWIDTH 4 0
BBX 3 5 0 0
BITMAP
E0
A0
E0
A0
E0
ENDCHAR
STARTCHAR ugrave
ENCODING 249
SWIDTH 799 0
DWIDTH 4 0
BBX 3 5 0 0
BITMAP
80
40
A0
A0
E0
ENDCHAR
STARTCHAR uacute
ENCODING 250
SWIDTH 799 0
DWIDTH 4 0
BBX 3 5 0 0
BITMAP
20
40
A0
A0
E0
ENDCHAR
STARTCHAR ucircumflex
ENCODING 251
SWIDTH 799 0
DWIDTH 4 0
BBX 3 5 0 0
BITMAP
40
A0
A0
A0
E0
ENDCHAR
STARTCHAR udieresis
ENCODING 252
SWIDTH 799 0
DWIDTH 4 0
BBX 3 5 0 0
BITMAP
A0
00
A0
A0
E0
ENDCHAR
STARTCHAR yacute
ENCODING 253
SWIDTH 799 0
DWIDTH 4 0
BBX 3 5 0 0
BITMAP
20
40
A0
E0
20
ENDCHAR
STARTCHAR thorn
ENCODING 254
SWIDTH 799 0
DWIDTH 4 0
BBX 3 5 0 0
BITMAP
80
E0
A0
E0
80
ENDCHAR
STARTCHAR ydieresis
ENCODING 255
SWIDTH 799 0
DWIDTH 4 0
BBX 3 5 0 0
BITMAP
A0
00
A0
E0
20
ENDCHAR
STARTCHAR OE
ENCODING 338
SWIDTH 799 0
DWIDTH 4 0
BBX 3 5 0 0
BITMAP
60
C0
E0
C0
60
ENDCHAR
STARTCHAR oe
ENCODING 339
SWIDTH 799 0
DWIDTH 4 0
BBX 3 4 0 0
BITMAP
E0
E0
C0
E0
ENDCHAR
STARTCHAR Uring
ENCODING 366
SWIDTH 799 0
DWIDTH 4 0
BBX 3 5 0 0
BITMAP
A0
A0
A0
A0
E0
ENDCHAR
STARTCHAR uring
ENCODING 367
SWIDTH 799 0
DWIDTH 4 0
BBX 3 5 0 0
BITMAP
A0
A0
A0
A0
E0
ENDCHAR
STARTCHAR Ydieresis
ENCODING 376
SWIDTH 799 0
DWIDTH 4 0
BBX 3 5 0 0
BITMAP
A0
00
A0
E0
40
ENDCHAR
STARTCHAR longs
ENCODING 383
SWIDTH 799 0
DWIDTH 4 0
BBX 3 5 0 0
BITMAP
E0
E0
E0
E0
E0
ENDCHAR
STARTCHAR uni1E9E
ENCODING 7838
SWIDTH 799 0
DWIDTH 4 0
BBX 3 5 0 0
BITMAP
C0
A0
C0
A0
E0
ENDCHAR
STARTCHAR emdash
ENCODING 8212
SWIDTH 799 0
DWIDTH 4 0
BBX 3 1 0 2
BITMAP
E0
ENDCHAR
STARTCHAR quoteleft
ENCODING 8216
SWIDTH 799 0
DWIDTH 4 0
BBX 1 2 1 3
BITMAP
80
80
ENDCHAR
STARTCHAR quoteright
ENCODING 8217
SWIDTH 799 0
DWIDTH 4 0
BBX 1 2 1 3
BITMAP
80
80
ENDCHAR
STARTCHAR quotesinglbase
ENCODING 8218
SWIDTH 799 0
DWIDTH 4 0
BBX 1 2 1 0
BITMAP
80
80
ENDCHAR
STARTCHAR quotereversed
ENCODING 8219
SWIDTH 799 0
DWIDTH 4 0
BBX 1 2 1 3
BITMAP
80
80
ENDCHAR
STARTCHAR quotedblleft
ENCODING 8220
SWIDTH 799 0
DWIDTH 4 0
BBX 3 2 0 3
BITMAP
A0
A0
ENDCHAR
STARTCHAR quotedblright
ENCODING 8221
SWIDTH 799 0
DWIDTH 4 0
BBX 3 2 0 3
BITMAP
A0
A0
ENDCHAR
STARTCHAR quotedblbase
ENCODING 8222
SWIDTH 799 0
DWIDTH 4 0
BBX 3 2 0 0
BITMAP
A0
A0
ENDCHAR
STARTCHAR dagger
ENCODING 8224
SWIDTH 799 0
DWIDTH 4 0
BBX 3 5 0 0
BITMAP
40
E0
40
40
40
ENDCHAR
STARTCHAR bullet
ENCODING 8226
SWIDTH 799 0
DWIDTH 4 0
BBX 3 3 0 1
BITMAP
40
E0
40
ENDCHAR
STARTCHAR guilsinglleft
ENCODING 8249
SWIDTH 799 0
DWIDTH 4 0
BBX 2 3 0 1
BITMAP
40
80
40
ENDCHAR
STARTCHAR guilsinglright
ENCODING 8250
SWIDTH 799 0
DWIDTH 4 0
BBX 2 3 0 1
BITMAP
80
40
80
ENDCHAR
STARTCHAR Euro
ENCODING 8364
SWIDTH 799 0
DWIDTH 4 0
BBX 3 5 0 0
BITMAP
60
40
E0
40
60
ENDCHAR
STARTCHAR trademark
ENCODING 8482
SWIDTH 799 0
DWIDTH 4 0
BBX 3 2 0 3
BITMAP
E0
A0
ENDCHAR
STARTCHAR .notdef
ENCODING -1
SWIDTH 799 0
DWIDTH 4 0
BBX 3 5 0 0
BITMAP
E0
E0
E0
E0
E0
ENDCHAR
STARTCHAR glyph1
ENCODING -1
SWIDTH 799 0
DWIDTH 4 0
BBX 1 1 0 0
BITMAP
00
ENDCHAR
STARTCHAR glyph2
ENCODING -1
SWIDTH 799 0
DWIDTH 4 0
BBX 1 1 0 0
BITMAP
00
ENDCHAR
ENDFONT
